<?xml version="1.0" standalone="no"?>
<!DOCTYPE svg PUBLIC "-//W3C//DTD SVG 1.1//EN" "http://www.w3.org/Graphics/SVG/1.1/DTD/svg11.dtd" >
<svg>
<metadata>
Created by FontForge 20090914 at Mon Jan 23 00:46:32 2017
 By www-data
Copyright subversivetype 2013
</metadata>
<defs>
<font id="Glitch" horiz-adv-x="576" >
  <font-face 
    font-family="Glitch"
    font-weight="400"
    font-stretch="normal"
    units-per-em="1024"
    panose-1="0 0 4 0 0 0 0 0 0 0"
    ascent="768"
    descent="-256"
    x-height="512"
    cap-height="768"
    bbox="-0.000976562 -256 768 768.001"
    underline-thickness="51"
    underline-position="126"
    unicode-range="U+0020-U+007A"
  />
<missing-glyph horiz-adv-x="769" 
d="M384 109v122h-123v-122h123zM506 251v123h-245v-123h245zM384 393v123h-123v-123h123zM506 536v122h-122c-34 0 -63 -12 -87 -36s-36 -52.667 -36 -86h245zM0 0v768h768v-768h-768z" />
    <glyph glyph-name=".notdef" horiz-adv-x="769" 
d="M384 109v122h-123v-122h123zM506 251v123h-245v-123h245zM384 393v123h-123v-123h123zM506 536v122h-122c-34 0 -63 -12 -87 -36s-36 -52.667 -36 -86h245zM0 0v768h768v-768h-768z" />
    <glyph glyph-name="space" unicode=" " horiz-adv-x="256" 
 />
    <glyph glyph-name="A" unicode="A" horiz-adv-x="832" 
d="M64 192v64h64v-64h-64zM127 256l-63 64h63v-64zM640 384l128 64v-64h-128zM512 384v128l-64 128l-64 -128h-64v-128h192zM128 0v192h64v64h-64v64h128v64h-64l192 384h128l128 -256h128l-128 -64v-320h64v-64h64v-64h-192v64h-64v192h-192v-128h-64v-128h-128z" />
    <glyph glyph-name="B" unicode="B" 
d="M217 38v51h-51v-51h51zM320 448v64c17.333 0 32.333 6 45 18c12.667 12.667 19 28 19 46c0 17.333 -6.33301 32.333 -19 45s-27.667 19 -45 19h-192v-128h128v-64h64zM0 0v128l64 128h-64v512h384c35.333 0 65.333 -12.667 90 -38c25.333 -24.667 38 -54.667 38 -90v-128
l-64 -64l64 -64v-64l-128 64v-64c0 17.333 -6.33301 32.333 -19 45s-27.667 19 -45 19h-192v-256h192c17.333 0 32.333 6 45 18c12.667 12.667 19 28 19 46v128h128v-256h-64v-64h-448z" />
    <glyph glyph-name="C" unicode="C" 
d="M192 192v64h64v-64h-64zM64 0v128.001h-64v192l64 64h64v-192h64v-64h64c34.667 0 64.667 12.333 90 37c25.333 25.333 38 55.666 38 90.999h128v-64l-64 -64l-64 -128h-128l-64 64l-64 -64h-64zM0 384.001v64h64v-64h-64zM64 448.001v64h-64v128
c-0 35.333 12.333 65.333 37 90c24.667 25.333 55 38 91 38v-64h128l-128 64h128v-64l64 64h64c35.333 0 65.333 -12.667 90 -38c25.333 -24.667 38 -54.667 38 -90v-64h-64v-64h-64v64c0 17.333 -6.33301 32.333 -19 45s-27.667 19 -45 19h-128
c-18 0 -33.333 -6.33301 -46 -19c-12 -12.667 -18 -27.667 -18 -45v-128h-64z" />
    <glyph glyph-name="D" unicode="D" 
d="M0 0v512.001h64v64h-64v192h384c35.333 0 65.333 -12.667 90 -38c25.333 -24.667 38 -54.667 38 -90v-128l-128 -64v64c0 34.667 -12.667 64.667 -38 90s-55.333 38 -90 38h-128v-256h-64l64 -128v-128h128c34.667 0 64.667 12.333 90 37
c25.333 25.333 38 55.666 38 90.999h-64v64h64v64l128 64v-192h-64v-128h64c0 -36 -12.667 -66.333 -38 -91c-24.667 -24.667 -54.667 -37 -90 -37h-64v64h-64v-64h-256z" />
    <glyph glyph-name="E" unicode="E" 
d="M192 0v128h64v64h64v-64h192v-128h-320zM0 0v320l128 -64v-128l64 -128h-192zM191 256l-63 64h64zM128 320l-128 64v384h512v-128h-384l128 64h-128v-192h256v-64h64v-64h-320v-64z" />
    <glyph glyph-name="F" unicode="F" 
d="M192 128v64h64zM0 0v128h64l-64 128v512h192v-128h-64v-128h256v-128h-256v-384h-128zM192 640l64 128h256v-128h-320z" />
    <glyph glyph-name="G" unicode="G" 
d="M128 0c-36 0 -66.333 12.333 -91 37s-37 55 -37 91v192h64v-64h64v-128l64 -128h-64zM256 0l-64 128.001v64l64 -64c34.667 0 64.667 12.333 90 37c25.333 25.333 38 55.666 38 90.999h-128v128h128l128 -64v-320l-64 128v-128h-192zM64 320.001v64h-64l64 64l-64 64v128
c-0 35.333 12.333 65.333 37 90c24.667 25.333 55 38 91 38h192l-64 -128h-64c-18 0 -33.333 -6.33301 -46 -19c-12 -12.667 -18 -27.667 -18 -45v-256h-64zM384 512.001v64c0 17.333 -6.33301 32.333 -19 45s-27.667 19 -45 19v128h128c17.333 0 32.333 -6.33301 45 -19
s19 -27.667 19 -45v-192h-128z" />
    <glyph glyph-name="H" unicode="H" 
d="M384 0v64h128v-64h-128zM0 0v640h64l-64 64v64h128v-256h192v128h64v128h128v-640l-128 -64v320h-64l64 -1l-64 -63v64h-192v-64h64v-64h-64v-64l-64 -64h64v-128h-128z" />
    <glyph glyph-name="I" unicode="I" horiz-adv-x="448" 
d="M0 0v128h128v512h-128l64 128h320v-128l-128 64v-448h64v-128h-64l64 -128h-320z" />
    <glyph glyph-name="J" unicode="J" horiz-adv-x="704" 
d="M460 307v25h-25v-25h25zM320 384h-64l64 64v-64zM128 0c-36 0 -66.333 12.333 -91 37s-37 55 -37 91v64l128 64v-64c0 -18 6 -33.333 18 -46c12.667 -12 28 -18 46 -18h64v-64h128l-128 64h64c17.333 0 32.333 6 45 18c12.667 12.667 19 28 19 46v64h-64v64h64v320h-128
v64l-128 -64v128h448v-64h64v-64h-128v-384h64v-64h-64v-64c0 -36 -12.667 -66.333 -38 -91c-24.667 -24.667 -54.667 -37 -90 -37h-256z" />
    <glyph glyph-name="K" unicode="K" 
d="M0 0v128h128v-128h-128zM384 0l-64 128h64l128 -128h-128zM128 128l-128 64v320h64v128h-64v128h128v-256l256 256h64v-128l-64 -128v128l-192 -192l192 -192l64 -128h-64l-256 256v-256zM448 640l64 128v-128h-64z" />
    <glyph glyph-name="L" unicode="L" 
d="M76 563v25h-25v-25h25zM0 0v768h128v-256h64v-64h-64v-64h64v-128h-64v-192h128l-128 64h384v-128h-128v64l-64 -64h-320z" />
    <glyph glyph-name="M" unicode="M" horiz-adv-x="704" 
d="M0 0v192h128v-192h-128zM511 128l-63 64h63v-64zM588 435v25h-25v-25h25zM512 0v512h-64v-128h-64v-128h-64v128h-64l-128 128v-320l-128 64v512h128l64 -128l64 -64v-64l64 -64l64 64l128 256h128v-768h-128z" />
    <glyph glyph-name="N" unicode="N" 
d="M76 307v25h-25v-25h25zM0 0v768h128l192 -384h-64l64 -128h64v256h64l64 -128v-384h-128l-192 384l-64 64v-192h-64l64 -128v-128h-128zM448 512l-64 64v64h-64v128h192v-256h-64z" />
    <glyph glyph-name="O" unicode="O" 
d="M128 0c-36 0 -66.333 12.333 -91 37s-37 55 -37 91v192h64v128h-64v192c-0 35.333 12.333 65.333 37 90c24.667 25.333 55 38 91 38h256c35.333 0 65.333 -12.667 90 -38c25.333 -24.667 38 -54.667 38 -90v-320h-64v64h-64v192l64 64h-192v-64h-64v64h-64v-256h64v-128
h-64l-64 -64l64 -64h256v192h64v-64h64v-192h-64v-64h-320z" />
    <glyph glyph-name="P" unicode="P" 
d="M76 563v25h-25v-25h25zM320 384c17.333 0 32.333 6 45 18c12.667 12.667 19 28 19 46v128c0 17.333 -6.33301 32.333 -19 45s-27.667 19 -45 19h-192v-256h192zM0 0v768h384c35.333 0 65.333 -12.667 90 -38c25.333 -24.667 38 -54.667 38 -90h-128l64 -128l64 128v-256
c0 -36 -12.667 -66.333 -38 -91c-24.667 -24.667 -54.667 -37 -90 -37h-64l-64 64v-64h-128v-128l-64 128v-128h64v-128h-128z" />
    <glyph glyph-name="Q" unicode="Q" 
d="M320 -128l-64 128h-128c-36 -0 -66.333 12.333 -91 37s-37 55 -37 91v512c-0 35.333 12.333 65.333 37 90c24.667 25.333 55 38 91 38h256l-128 -64l128 -64h-256v-256h-64l64 -128v-128h127l-63 64h63v-64h1v64h64v-64h64v320h-64v64h64v256
c35.333 0 65.333 -12.667 90 -38c25.333 -24.667 38 -54.667 38 -90v-384h-64v-64h64v-64c0 -36 -12.667 -66.333 -38 -91c-24.667 -24.667 -54.667 -37 -90 -37h-64l64 -128h-64z" />
    <glyph glyph-name="R" unicode="R" 
d="M384 0v128l-128 128l128 64v-64l128 -128v-128h-128zM435 307v25h25v-25h-25zM320 448v64h64v128h-128v64l-64 -64h-64v-192l64 64h64v-64h64zM0 0v768h384c35.333 0 65.333 -12.667 90 -38c25.333 -24.667 38 -54.667 38 -90v-128c0 -36 -12.667 -66.333 -38 -91
c-24.667 -24.667 -54.667 -37 -90 -37l-128 -64v-64h-64v64h-64v-320h-128z" />
    <glyph glyph-name="S" unicode="S" 
d="M128 0c-36 0 -66.333 12.333 -91 37s-37 55 -37 91v64h64v64h64v-128h192c17.333 0 32.333 6 45 18c12.667 12.667 19 28 19 46v64h-64v64h-64l-128 64c-36 0 -66.333 12.333 -91 37s-37 55 -37 91v128c-0 35.333 12.333 65.333 37 90c24.667 25.333 55 38 91 38h256
l-128 -64h128v64c35.333 0 65.333 -12.667 90 -38c25.333 -24.667 38 -54.667 38 -90v-128h-128v64c0 17.333 -6.33301 32.333 -19 45s-27.667 19 -45 19h-128c-18 0 -33.333 -6.33301 -46 -19c-12 -12.667 -18 -27.667 -18 -45c0 -18 6 -33.333 18 -46
c12.667 -12 28 -18 46 -18l64 -128v64l64 -64h128v-64h64v-192c0 -36 -12.667 -66.333 -38 -91c-24.667 -24.667 -54.667 -37 -90 -37h-256z" />
    <glyph glyph-name="T" unicode="T" horiz-adv-x="704" 
d="M256 0v128h128v-128h-128zM384 128l-128 64v448l-128 -64v64h-128l64 128h448v-64h128v-64h-256v-256h64v-128h-64v-128z" />
    <glyph glyph-name="U" unicode="U" 
d="M0 704v64h128zM128 0c-36 0 -66.333 12.333 -91 37s-37 55 -37 91v512l128 64v-384h-64v-64h64v-64c0 -18 6 -33.333 18 -46c12.667 -12 28 -18 46 -18h128c17.333 0 32.333 6 45 18c12.667 12.667 19 28 19 46v192h-64v128h64v256h128v-640
c0 -36 -12.667 -66.333 -38 -91c-24.667 -24.667 -54.667 -37 -90 -37h-256z" />
    <glyph glyph-name="V" unicode="V" horiz-adv-x="704" 
d="M256 0v256l64 -128l64 128v64h128v-64l-64 -128h-64v-128h-128zM192 128l-64 128v128l-128 256v128h128v-256l128 -128v-128h-64v-128zM512 320l-128 64v128l64 128h64v128h128v-128h-64l-64 -128v-192z" />
    <glyph glyph-name="W" unicode="W" horiz-adv-x="832" 
d="M128 192l-64 64h64v-64zM320 0l-192 384v128l-128 256h128l128 -256v-256h128v384h128v-256l-128 -256v-128h-64zM640 0l-128 64v64l-64 128h64l64 128h64v128l64 128v128h64v-384h-64l-64 -128v-256z" />
    <glyph glyph-name="X" unicode="X" horiz-adv-x="704" 
d="M0 0v192h64v64h64v-128l64 128v-128l-64 -128h-128zM576 192v64h64v-64h-64zM512 0v128h-64v64h-64v64l-64 128l-64 -128h-128l64 128h64l-256 256v128h128v-128h64v-64h64v-64h128v64h64v64h64v64h64v-64h64l-256 -256l128 -128v-64h64v-64h64v-128h-128zM576 704v64h64
v-64h-64z" />
    <glyph glyph-name="Y" unicode="Y" horiz-adv-x="704" 
d="M384 384l128 128v-128h-128zM384 512l128 128l128 -128h-256zM256 0v64l64 64h-64v256l-256 256l64 64l-64 64h128v-128h64v-64h64v-64l64 -64l64 64v-512h-128zM512 640v128h128v-128h-128z" />
    <glyph glyph-name="Z" unicode="Z" 
d="M204 691v25h-25v-25h25zM0 640v128h384l-128 -64h128v-64h-384zM0 0v64l64 64l128 256h64v128l128 128h64v64h-64v64h128v-128l-128 -128v-128l-128 -128v-64l-128 -64h384v-128h-512z" />
    <glyph glyph-name="a" unicode="a" 
d="M128 0l-128 128v128h64l-64 128l128 128h192l64 -128h-192c-18 0 -33.333 -6.33301 -46 -19c-12 -12.667 -18 -27.667 -18 -45v-128c0 -18 6 -33.333 18 -46c12.667 -12 28 -18 46 -18h192v-128h-256zM512 0l-128 128h64l-64 128v256h128v-512z" />
    <glyph glyph-name="b" unicode="b" 
d="M255 128l-63 64h63v-64zM332 435v25h-25v-25h25zM256 0c-36 0 -66.333 12.333 -91 37s-37 55 -37 91h256v256h-256l128 128h128c35.333 0 65.333 -12.667 90 -38c25.333 -24.667 38 -54.667 38 -90v-256c0 -36 -12.667 -66.333 -38 -91
c-24.667 -24.667 -54.667 -37 -90 -37h-128zM0 0v576h128v-576h-128zM0 576v192h128v-128z" />
    <glyph glyph-name="c" unicode="c" 
d="M256 0v128h192l64 64v-128l-128 -64h-128zM307 307v25h25v-25h-25zM89 294v51h-51v-51h51zM128 0c-36 0 -66.334 12.334 -91.001 37.001s-37 55 -37 91v256c34.667 0 64.667 12.333 90 37c25.333 25.333 38 55.666 38 90.999h320v-64h64v-64h-256
c-35.333 0 -65.666 -12.667 -90.999 -38c-24.667 -25.333 -37 -55.333 -37 -90v-64c0 -18 6 -33.333 18 -46c12.667 -12 28 -18 46 -18l64 -128h-128z" />
    <glyph glyph-name="d" unicode="d" 
d="M128 0c-36 0 -66.333 12.333 -91 37s-37 55 -37 91v128h64v128l-64 -128v128c-0 35.333 12.333 65.333 37 90c24.667 25.333 55 38 91 38h128l128 -128h-192c-18 0 -33.333 -6.33301 -46 -19c-12 -12.667 -18 -27.667 -18 -45v-128c0 -18 6 -33.333 18 -46
c12.667 -12 28 -18 46 -18h128c17.333 0 32.333 6 45 18c12.667 12.667 19 28 19 46v576h128v-192l-64 -64h64v-512l-128 128v-128h-256z" />
    <glyph glyph-name="e" unicode="e" 
d="M64 0l-64 128h64l64 128h-64l-64 -128v256c-0 35.333 12.333 65.333 37 90c24.667 25.333 55 38 91 38h192l-64 -128v64h-128v-128h256v64l-64 128h64c35.333 0 65.333 -12.667 90 -38c25.333 -24.667 38 -54.667 38 -90v-128h-384v-128l64 -64l64 64h256v-64
c0 -18 -6.33301 -33.333 -19 -46c-12.667 -12 -27.667 -18 -45 -18h-384z" />
    <glyph glyph-name="f" unicode="f" horiz-adv-x="448" 
d="M0 0v192l128 64v-256h-128zM319 192l-63 64h63v-64zM384 320h-64l64 64v-64zM217 678v51h-51v-51h51zM0 256v384c-0 35.333 12.333 65.333 37 90c24.667 25.333 55 38 91 38h256v-128h-320l64 -64v-64h192l64 -128h-256v-128h-128z" />
    <glyph glyph-name="g" unicode="g" 
d="M332 -204v25h-25v-25h25zM128 -256l-128 64v128h128v-64h256v128h-256v64h-64v64h-64v256l128 128h128l-128 -64l128 -64h-64c-18 0 -33.333 -6.33301 -46 -19c-12 -12.667 -18 -27.667 -18 -45v-128c0 -18 6 -33.333 18 -46c12.667 -12 28 -18 46 -18h128
c17.333 0 32.333 6 45 18c12.667 12.667 19 28 19 46v128c0 17.333 -6.33301 32.333 -19 45s-27.667 19 -45 19h-64v128l128 -128v128h128v-768h-384z" />
    <glyph glyph-name="h" unicode="h" 
d="M460 179v25h-25v-25h25zM319 256l-63 64h64zM0 0v576h128v-128h64v64h192l128 -128v-384h-128v384h-256v-384h-128zM128 576l-128 64v128h128v-192z" />
    <glyph glyph-name="i" unicode="i" horiz-adv-x="192" 
d="M89 38v51h-51v-51h51zM0 0v320l128 -64v-256h-128zM0 320v192h128v-128zM76 691v25h-25v-25h25zM0 640v128h128v-128h-128z" />
    <glyph glyph-name="j" unicode="j" horiz-adv-x="320" 
d="M64 -128l-64 128h128v384h64v128h64v-256h-64l64 -128v-256h-192zM128 640v64h128v-64h-128zM128 704v64h128z" />
    <glyph glyph-name="k" unicode="k" 
d="M0 0v192l128 63v0l-64 -127h64v-128h-128zM384 0v128l-128 64v64h-64l-64 64l64 64h64l128 -64v-128l128 -64v-128h-128zM0 256v256h128v-256h-128zM256 384v128h128v-128h-128zM384 512v64l128 64l-64 -128h-64zM0 512v256h128v-256l-64 128z" />
    <glyph glyph-name="l" unicode="l" horiz-adv-x="320" 
d="M255 256l-63 64h63v-64zM128 0c-36 0 -66.333 12.333 -91 37s-37 55 -37 91v320h64v-64h64v-192c0 -18 6 -33.333 18 -46c12.667 -12 28 -18 46 -18h64v-128l-128 64v-64zM64 448v64h-64v128l128 64v-256h-64zM0 704v64h128z" />
    <glyph glyph-name="m" unicode="m" horiz-adv-x="704" 
d="M512 0v192h128v-192h-128zM256 0v128h64v64h-64v192l64 -64l64 64v-384h-128zM0 0v512h64v-64h64v-448h-128zM128 384l128 128v-128h-128zM512 256v128h-128v64l64 64l64 -64l128 -64v-128h-128z" />
    <glyph glyph-name="n" unicode="n" 
d="M384 0v192h128v-192h-128zM0 0v512h128v-512h-128zM384 256v64c0 17.333 -6.33301 32.333 -19 45s-27.667 19 -45 19h-192l64 128h192l64 -128l64 -64l-64 -64h-64z" />
    <glyph glyph-name="o" unicode="o" 
d="M204 51v25h-25v-25h25zM89 294v51h-51v-51h51zM320 128c17.333 0 32.333 6 45 18c12.667 12.667 19 28 19 46v128c0 17.333 -6.33301 32.333 -19 45s-27.667 19 -45 19h-128c-18 0 -33.333 -6.33301 -46 -19c-12 -12.667 -18 -27.667 -18 -45v-128
c0 -18 6 -33.333 18 -46c12.667 -12 28 -18 46 -18h128zM128 0c-36 0 -66.333 12.333 -91 37s-37 55 -37 91v256c-0 35.333 12.333 65.333 37 90c24.667 25.333 55 38 91 38h256l-64 -64l64 -64v128c35.333 0 65.333 -12.667 90 -38c25.333 -24.667 38 -54.667 38 -90h-64
v-128h64v-128c0 -36 -12.667 -66.333 -38 -91c-24.667 -24.667 -54.667 -37 -90 -37h-256z" />
    <glyph glyph-name="p" unicode="p" 
d="M179 307v25h25v-25h-25zM0 256v256h128v-256h-128zM0 -256v448h128v-64h128v-64h128v64h-64c17.333 0 32.333 6 45 18c12.667 12.667 19 28 19 46v128c0 17.333 -6.33301 32.333 -19 45s-27.667 19 -45 19h-192l128 128h128c35.333 0 65.333 -12.667 90 -38
c25.333 -24.667 38 -54.667 38 -90v-256l-128 -128h-128l-128 64v-192h-64l64 -128h-128z" />
    <glyph glyph-name="q" unicode="q" horiz-adv-x="704" 
d="M384 -256v128h128v-128h-128zM512 -256l64 128h64l-64 -128h-64zM384 128v256h-256v-256h256zM384 -128v128h-128v64h-128l128 -64h-192c-18 0 -33.333 6 -46 18c-12 12.667 -18 28 -18 46v320l64 128h192l128 -64v64h128v-128h-64v-128h64v-384l-64 128z" />
    <glyph glyph-name="r" unicode="r" 
d="M256 256v63h64zM0 0v512h128v-128l128 128h192v-64h64v-64h-320c-18 0 -33.333 -6.33301 -46 -19c-12 -12.667 -18 -27.667 -18 -45v-128l-64 -64h64v-128h-128z" />
    <glyph glyph-name="s" unicode="s" 
d="M0 0v64h64v64h192l64 -128h-320zM384 0l-64 128h64v128h-128v-64h-64v64h-64c-36 0 -66.333 12.333 -91 37s-37 55 -37 91l128 128h128l-64 -64l64 -64h-128v-64h192v64h64c35.333 0 65.333 -12.667 90 -38c25.333 -24.667 38 -54.667 38 -90v-128
c0 -36 -12.667 -66.333 -38 -91c-24.667 -24.667 -54.667 -37 -90 -37zM256 448v64h256v-64h-256z" />
    <glyph glyph-name="t" unicode="t" 
d="M307 307v25h25v-25h-25zM320 384v128h64v-128h-64zM128 0c-36 0 -66.333 12.333 -91 37s-37 55 -37 91l64 128h-64v384h128v-128h128v-128h-128v-256h256v128h64l64 -128c0 -36 -12.667 -66.333 -38 -91c-24.667 -24.667 -54.667 -37 -90 -37h-256zM128 640l-128 64v64
h128v-128z" />
    <glyph glyph-name="u" unicode="u" 
d="M128 0c-36 0 -66.333 12.333 -91 37s-37 55 -37 91v128h64v64h64v-192h256l-64 -128h-192zM0 320v192h128v-128h-64v-64h-64zM384 0v512h128v-512h-128z" />
    <glyph glyph-name="v" unicode="v" 
d="M320 128v256h64v-128zM448 256v128h64zM256 0l-256 512h128l128 -256v-128h64zM384 384v128h128l-64 -128h-64z" />
    <glyph glyph-name="w" unicode="w" horiz-adv-x="704" 
d="M256 0l-128 128v128l-128 128v128h64l64 -128h64v-256h64v-128zM384 0l-64 128h-64v384h64v-128l64 -128v-128l192 384h64l-64 -128v-128h-64v-128l-64 -128h-64z" />
    <glyph glyph-name="x" unicode="x" 
d="M384 0l-128 256l128 -64v-64v0l128 -128h-128zM256 256v64h64v-64h-64zM0 0v64h64v64h64l64 128l-64 128h-64l-64 128l128 -64v64l128 -256l-128 -256h-128zM320 320v64l64 128h64l-64 -128v-64h-64z" />
    <glyph glyph-name="y" unicode="y" 
d="M345 -217v51h-51v-51h51zM166 -89v51h51v-51h-51zM384 384v64h128v-64h-128zM128 -256c-36 0 -66.333 12.667 -91 38c-24.667 24.667 -37 54.667 -37 90v64c0 -17.333 6 -32.333 18 -45c12.667 -12.667 28 -19 46 -19h64v-64h64v64h192v128h-320c-18 0 -33.333 6 -46 18
c-12 12.667 -18 28 -18 46v64l64 64l-64 64v128l64 128v-128h64v-192c0 -18 6 -33.333 18 -46c12.667 -12 28 -18 46 -18h64v-64h64v64h64v256l64 -64l64 64v-576l-128 -64h-256zM384 448v64h128z" />
    <glyph glyph-name="z" unicode="z" 
d="M128 0l128 64h256v-64h-384zM384 64v64h128zM332 435v25h-25v-25h25zM0 0v64h64v64h64v64l128 64v64h128v64h-256l128 64h-128v-64h-64l-64 64v64h512v-128l-64 -128h-64v-64h-128v-64l-128 -64v-64h-128z" />
    <glyph glyph-name="NULL" horiz-adv-x="-64" 
 />
    <glyph glyph-name="nonmarkingreturn" horiz-adv-x="256" 
 />
  </font>
</defs>
</svg>
